<svg width="50" height="50" viewBox="0 0 50 50" fill="none" xmlns="http://www.w3.org/2000/svg">
<path d="M0 24.3902C0 12.8926 0 7.14374 3.57187 3.57187C7.14374 0 12.8926 0 24.3902 0H25.6098C37.1074 0 42.8563 0 46.4281 3.57187C50 7.14374 50 12.8926 50 24.3902V25.6098C50 37.1074 50 42.8563 46.4281 46.4281C42.8563 50 37.1074 50 25.6098 50H24.3902C12.8926 50 7.14374 50 3.57187 46.4281C0 42.8563 0 37.1074 0 25.6098V24.3902Z" fill="#CAE2F7"/>
<path opacity="0.2" d="M33.0031 16.1965H29.8019C29.3599 16.1965 29.0016 16.5548 29.0016 16.9968V20.1981C29.0016 20.6401 29.3599 20.9984 29.8019 20.9984H33.0031C33.4451 20.9984 33.8034 20.6401 33.8034 20.1981V16.9968C33.8034 16.5548 33.4451 16.1965 33.0031 16.1965Z" fill="#0A2D65"/>
<path opacity="0.2" d="M16.997 16.2418H20.1982C20.6152 16.2418 20.9532 16.5798 20.9532 16.9968V20.1981C20.9532 20.6151 20.6152 20.9531 20.1982 20.9531H16.997C16.58 20.9531 16.2419 20.6151 16.2419 20.1981V16.9968C16.2419 16.5798 16.58 16.2418 16.997 16.2418Z" fill="#0A2D65" stroke="#0A2D65" stroke-width="0.0905107"/>
<path opacity="0.2" d="M29.8019 29.0467H33.0031C33.4201 29.0467 33.7582 29.3848 33.7582 29.8018V33.003C33.7582 33.42 33.4201 33.758 33.0031 33.758H29.8019C29.3849 33.758 29.0468 33.42 29.0468 33.003V29.8018C29.0468 29.3848 29.3849 29.0467 29.8019 29.0467Z" fill="#0A2D65" stroke="#0A2D65" stroke-width="0.0905107"/>
<path opacity="0.2" d="M16.997 29.0467H20.1982C20.6152 29.0467 20.9532 29.3848 20.9532 29.8018V33.003C20.9532 33.42 20.6152 33.758 20.1982 33.758H16.997C16.58 33.758 16.2419 33.42 16.2419 33.003V29.8018C16.2419 29.3848 16.58 29.0467 16.997 29.0467Z" fill="#0A2D65" stroke="#0A2D65" stroke-width="0.0905107"/>
<path d="M33.0031 16.1965H29.8019C29.3599 16.1965 29.0016 16.5548 29.0016 16.9968V20.1981C29.0016 20.6401 29.3599 20.9984 29.8019 20.9984H33.0031C33.4451 20.9984 33.8034 20.6401 33.8034 20.1981V16.9968C33.8034 16.5548 33.4451 16.1965 33.0031 16.1965Z" stroke="#0A2D65" stroke-width="1.44817" stroke-linecap="round" stroke-linejoin="round"/>
<path d="M20.1982 16.1965H16.997C16.555 16.1965 16.1967 16.5548 16.1967 16.9968V20.1981C16.1967 20.6401 16.555 20.9984 16.997 20.9984H20.1982C20.6402 20.9984 20.9985 20.6401 20.9985 20.1981V16.9968C20.9985 16.5548 20.6402 16.1965 20.1982 16.1965Z" stroke="#0A2D65" stroke-width="1.44817" stroke-linecap="round" stroke-linejoin="round"/>
<path d="M33.0031 29.0015H29.8019C29.3599 29.0015 29.0016 29.3598 29.0016 29.8018V33.003C29.0016 33.445 29.3599 33.8033 29.8019 33.8033H33.0031C33.4451 33.8033 33.8034 33.445 33.8034 33.003V29.8018C33.8034 29.3598 33.4451 29.0015 33.0031 29.0015Z" stroke="#0A2D65" stroke-width="1.44817" stroke-linecap="round" stroke-linejoin="round"/>
<path d="M20.1982 29.0015H16.997C16.555 29.0015 16.1967 29.3598 16.1967 29.8018V33.003C16.1967 33.445 16.555 33.8033 16.997 33.8033H20.1982C20.6402 33.8033 20.9985 33.445 20.9985 33.003V29.8018C20.9985 29.3598 20.6402 29.0015 20.1982 29.0015Z" stroke="#0A2D65" stroke-width="1.44817" stroke-linecap="round" stroke-linejoin="round"/>
<path d="M18.5977 29.0016V20.9985" stroke="#0A2D65" stroke-width="1.44817" stroke-linecap="round" stroke-linejoin="round"/>
<path d="M29.0016 31.4023H20.9985" stroke="#0A2D65" stroke-width="1.44817" stroke-linecap="round" stroke-linejoin="round"/>
<path d="M31.4025 20.9985V29.0016" stroke="#0A2D65" stroke-width="1.44817" stroke-linecap="round" stroke-linejoin="round"/>
<path d="M20.9985 18.5974H29.0016" stroke="#0A2D65" stroke-width="1.44817" stroke-linecap="round" stroke-linejoin="round"/>
</svg>
