<svg width="32" height="32" viewBox="0 0 32 32" fill="none" xmlns="http://www.w3.org/2000/svg">
<g id="Facebook" clip-path="url(#clip0_572_397)">
<g id="Group 44">
<path id="Vector" d="M32 16.0933C32 7.21333 24.84 0 16 0C7.16 0 0 7.2 0 16.0933C0 24.1333 5.85333 30.8 13.5067 32V20.7467H9.44V16.0933H13.4933V12.5467C13.4933 8.52 15.8933 6.28 19.5467 6.28C21.2933 6.28 23.12 6.6 23.12 6.6V10.56H21.12C19.12 10.56 18.5067 11.8 18.5067 13.08V16.0933H22.9333L22.2267 20.76H18.4933V32C26.16 30.8 32 24.1333 32 16.0933Z" fill="white"/>
</g>
</g>
<defs>
<clipPath id="clip0_572_397">
<rect width="32" height="32" fill="white"/>
</clipPath>
</defs>
</svg>
