<svg width="32" height="32" viewBox="0 0 32 32" fill="none" xmlns="http://www.w3.org/2000/svg">
<g id="Instagram Circle" clip-path="url(#clip0_572_400)">
<path id="Vector" d="M16 0C24.836 0 32 7.164 32 16C32 24.836 24.836 32 16 32C7.164 32 0 24.836 0 16C0 7.164 7.164 0 16 0ZM20.1533 6H11.8467C8.44133 6 6.13867 8.20267 6.00667 11.54L6 11.8467V20.1133C6 21.8467 6.564 23.3387 7.69333 24.428C8.704 25.4013 10.028 25.9213 11.536 25.992L11.8867 26H20.1133C21.8467 26 23.2987 25.436 24.3467 24.4267C25.3627 23.4493 25.9227 22.084 25.992 20.4973L26 20.1533V11.8467C26 10.1533 25.436 8.70133 24.3867 7.65333C23.4093 6.63733 22.044 6.07733 20.4893 6.008L20.1533 6ZM11.8867 7.85467H20.1933C21.4027 7.85467 22.4107 8.21733 23.1373 8.944C23.7653 9.60933 24.156 10.5107 24.2173 11.5573L24.2253 11.8467V20.1533C24.2253 21.4027 23.7827 22.4107 23.056 23.0973C22.3907 23.724 21.488 24.0827 20.4107 24.1373L20.1133 24.1453H11.8867C10.6773 24.1453 9.66933 23.7827 8.944 23.0973C8.27733 22.4307 7.91733 21.5293 7.86267 20.42L7.85467 20.1133V11.8467C7.85467 10.6373 8.21733 9.62933 8.944 8.90267C9.57067 8.27467 10.504 7.91733 11.588 7.86267L11.8867 7.85467ZM16 10.8C14.6323 10.8032 13.3216 11.3478 12.3544 12.3147C11.3871 13.2817 10.8422 14.5923 10.8387 15.96C10.8366 16.6385 10.9686 17.3106 11.2272 17.9379C11.4858 18.5651 11.8659 19.135 12.3456 19.6148C12.8253 20.0946 13.3951 20.4748 14.0222 20.7336C14.6494 20.9924 15.3215 21.1246 16 21.1227C17.3679 21.1195 18.6789 20.5747 19.6461 19.6074C20.6134 18.6402 21.1582 17.3292 21.1613 15.9613C21.1613 13.1387 18.8227 10.8 16 10.8ZM16 12.6533C17.8133 12.6533 19.3067 14.1467 19.3067 15.96C19.3067 17.776 17.8133 19.2667 16 19.2667C15.1241 19.2632 14.2851 18.9136 13.6657 18.2943C13.0464 17.6749 12.6968 16.8359 12.6933 15.96C12.6968 15.0841 13.0464 14.2451 13.6657 13.6257C14.2851 13.0064 15.1241 12.6568 16 12.6533ZM21.3627 9.50933C21.2091 9.50933 21.0571 9.53958 20.9152 9.59834C20.7733 9.65711 20.6444 9.74324 20.5358 9.85182C20.4272 9.96041 20.3411 10.0893 20.2823 10.2312C20.2236 10.3731 20.1933 10.5251 20.1933 10.6787C20.1933 10.8322 20.2236 10.9843 20.2823 11.1262C20.3411 11.268 20.4272 11.3969 20.5358 11.5055C20.6444 11.6141 20.7733 11.7002 20.9152 11.759C21.0571 11.8178 21.2091 11.848 21.3627 11.848C21.6728 11.848 21.9702 11.7248 22.1895 11.5055C22.4088 11.2862 22.532 10.9888 22.532 10.6787C22.532 10.3685 22.4088 10.0711 22.1895 9.85182C21.9702 9.63253 21.6728 9.50933 21.3627 9.50933Z" fill="white"/>
</g>
<defs>
<clipPath id="clip0_572_400">
<rect width="32" height="32" fill="white"/>
</clipPath>
</defs>
</svg>
