<svg width="50" height="50" viewBox="0 0 50 50" fill="none" xmlns="http://www.w3.org/2000/svg">
<path d="M0 24.3902C0 12.8926 0 7.14374 3.57187 3.57187C7.14374 0 12.8926 0 24.3902 0H25.6098C37.1074 0 42.8563 0 46.4281 3.57187C50 7.14374 50 12.8926 50 24.3902V25.6098C50 37.1074 50 42.8563 46.4281 46.4281C42.8563 50 37.1074 50 25.6098 50H24.3902C12.8926 50 7.14374 50 3.57187 46.4281C0 42.8563 0 37.1074 0 25.6098V24.3902Z" fill="#CAE2F7"/>
<path opacity="0.2" d="M15.5063 19.658C15.4338 19.7825 15.3958 19.924 15.3962 20.0681V29.9319C15.397 30.0744 15.4353 30.2141 15.5073 30.3371C15.5793 30.46 15.6825 30.5618 15.8064 30.6321L24.6098 35.584C24.7284 35.6518 24.8632 35.6864 24.9999 35.6841L25.0899 25L15.5063 19.658Z" fill="#0A2D65"/>
<path d="M34.6036 29.9317V20.068C34.6028 19.9255 34.5645 19.7857 34.4925 19.6628C34.4205 19.5398 34.3173 19.4381 34.1934 19.3677L25.39 14.4158C25.2714 14.3473 25.1369 14.3113 24.9999 14.3113C24.8629 14.3113 24.7284 14.3473 24.6097 14.4158L15.8064 19.3677C15.6825 19.4381 15.5793 19.5398 15.5073 19.6628C15.4353 19.7857 15.397 19.9255 15.3962 20.068V29.9317C15.397 30.0742 15.4353 30.214 15.5073 30.3369C15.5793 30.4599 15.6825 30.5616 15.8064 30.632L24.6097 35.5839C24.7284 35.6524 24.8629 35.6884 24.9999 35.6884C25.1369 35.6884 25.2714 35.6524 25.39 35.5839L34.1934 30.632C34.3173 30.5616 34.4205 30.4599 34.4925 30.3369C34.5645 30.214 34.6028 30.0742 34.6036 29.9317V29.9317Z" stroke="#0A2D65" stroke-width="1.44817" stroke-linecap="round" stroke-linejoin="round"/>
<path d="M29.9017 27.451V22.249L20.198 16.897" stroke="#0A2D65" stroke-width="1.44817" stroke-linecap="round" stroke-linejoin="round"/>
<path d="M34.4936 19.658L25.09 25L15.5063 19.658" stroke="#0A2D65" stroke-width="1.44817" stroke-linecap="round" stroke-linejoin="round"/>
<path d="M25.09 25L25 35.6841" stroke="#0A2D65" stroke-width="1.44817" stroke-linecap="round" stroke-linejoin="round"/>
</svg>
