<svg width="50" height="50" viewBox="0 0 50 50" fill="none" xmlns="http://www.w3.org/2000/svg">
<path d="M0 24.3902C0 12.8926 0 7.14374 3.57187 3.57187C7.14374 0 12.8926 0 24.3902 0H25.6098C37.1074 0 42.8563 0 46.4281 3.57187C50 7.14374 50 12.8926 50 24.3902V25.6098C50 37.1074 50 42.8563 46.4281 46.4281C42.8563 50 37.1074 50 25.6098 50H24.3902C12.8926 50 7.14374 50 3.57187 46.4281C0 42.8563 0 37.1074 0 25.6098V24.3902Z" fill="#CAE2F7"/>
<path opacity="0.2" d="M19.1678 34.0335C19.0933 34.1091 19.0045 34.1692 18.9066 34.2102C18.8087 34.2512 18.7037 34.2723 18.5975 34.2723C18.4914 34.2723 18.3863 34.2512 18.2884 34.2102C18.1906 34.1692 18.1018 34.1091 18.0273 34.0335L15.9665 31.9727C15.8909 31.8983 15.8309 31.8095 15.7899 31.7116C15.7489 31.6137 15.7278 31.5086 15.7278 31.4025C15.7278 31.2964 15.7489 31.1913 15.7899 31.0934C15.8309 30.9955 15.8909 30.9068 15.9665 30.8323L26.6006 20.1982L29.8018 23.3995L19.1678 34.0335Z" fill="#0A2D65"/>
<path d="M33.8032 25V29.8018" stroke="#0A2D65" stroke-width="1.44817" stroke-linecap="round" stroke-linejoin="round"/>
<path d="M31.4023 27.4009H36.2042" stroke="#0A2D65" stroke-width="1.44817" stroke-linecap="round" stroke-linejoin="round"/>
<path d="M20.5981 16.1965V20.1981" stroke="#0A2D65" stroke-width="1.44817" stroke-linecap="round" stroke-linejoin="round"/>
<path d="M18.5974 18.1975H22.5989" stroke="#0A2D65" stroke-width="1.44817" stroke-linecap="round" stroke-linejoin="round"/>
<path d="M29.0015 30.6021V33.8033" stroke="#0A2D65" stroke-width="1.44817" stroke-linecap="round" stroke-linejoin="round"/>
<path d="M27.4009 32.2026H30.6021" stroke="#0A2D65" stroke-width="1.44817" stroke-linecap="round" stroke-linejoin="round"/>
<path d="M30.8449 15.9596L15.9687 30.8357C15.6562 31.1482 15.6562 31.655 15.9687 31.9675L18.0378 34.0366C18.3503 34.3491 18.8571 34.3491 19.1696 34.0366L34.0457 19.1605C34.3583 18.8479 34.3583 18.3412 34.0457 18.0287L31.9767 15.9596C31.6641 15.6471 31.1574 15.6471 30.8449 15.9596Z" stroke="#0A2D65" stroke-width="1.44817" stroke-linecap="round" stroke-linejoin="round"/>
<path d="M26.6006 20.1982L29.8018 23.3995" stroke="#0A2D65" stroke-width="1.44817" stroke-linecap="round" stroke-linejoin="round"/>
</svg>
