<svg width="42" height="43" viewBox="0 0 42 43" fill="none" xmlns="http://www.w3.org/2000/svg">
<g filter="url(#filter0_d_565_219)">
<path fill-rule="evenodd" clip-rule="evenodd" d="M27 13.5C27 15.0913 26.3679 16.6174 25.2426 17.7426C24.1174 18.8679 22.5913 19.5 21 19.5C19.4087 19.5 17.8826 18.8679 16.7574 17.7426C15.6321 16.6174 15 15.0913 15 13.5C15 11.9087 15.6321 10.3826 16.7574 9.25736C17.8826 8.13214 19.4087 7.5 21 7.5C22.5913 7.5 24.1174 8.13214 25.2426 9.25736C26.3679 10.3826 27 11.9087 27 13.5ZM24 13.5C24 14.2956 23.6839 15.0587 23.1213 15.6213C22.5587 16.1839 21.7956 16.5 21 16.5C20.2044 16.5 19.4413 16.1839 18.8787 15.6213C18.3161 15.0587 18 14.2956 18 13.5C18 12.7044 18.3161 11.9413 18.8787 11.3787C19.4413 10.8161 20.2044 10.5 21 10.5C21.7956 10.5 22.5587 10.8161 23.1213 11.3787C23.6839 11.9413 24 12.7044 24 13.5Z" fill="#1B599D"/>
<path fill-rule="evenodd" clip-rule="evenodd" d="M21 1.5C11.8875 1.5 4.5 8.8875 4.5 18C4.5 27.1125 11.8875 34.5 21 34.5C30.1125 34.5 37.5 27.1125 37.5 18C37.5 8.8875 30.1125 1.5 21 1.5ZM7.5 18C7.5 21.135 8.5695 24.021 10.362 26.313C11.6212 24.6602 13.2452 23.3207 15.1075 22.3991C16.9697 21.4775 19.0197 20.9987 21.0975 21C23.1486 20.9976 25.1731 21.4636 27.0167 22.3626C28.8603 23.2615 30.4743 24.5695 31.7355 26.187C33.0352 24.4824 33.9103 22.4928 34.2883 20.3829C34.6664 18.2729 34.5366 16.1033 33.9097 14.0535C33.2828 12.0037 32.1768 10.1326 30.6832 8.59506C29.1896 7.05754 27.3514 5.89779 25.3206 5.21176C23.2898 4.52574 21.1248 4.33316 19.0048 4.64996C16.8848 4.96676 14.8707 5.78384 13.1292 7.03358C11.3876 8.28332 9.96872 9.92981 8.98984 11.8368C8.01097 13.7438 7.50027 15.8565 7.5 18ZM21 31.5C17.9009 31.505 14.8952 30.4388 12.492 28.482C13.4592 27.0969 14.7468 25.9661 16.2451 25.1857C17.7434 24.4053 19.4081 23.9985 21.0975 24C22.7658 23.9985 24.4103 24.3952 25.8945 25.157C27.3787 25.9188 28.6596 27.0237 29.631 28.38C27.2092 30.4005 24.154 31.5049 21 31.5Z" fill="#1B599D"/>
</g>
<defs>
<filter id="filter0_d_565_219" x="-1" y="0" width="44" height="44" filterUnits="userSpaceOnUse" color-interpolation-filters="sRGB">
<feFlood flood-opacity="0" result="BackgroundImageFix"/>
<feColorMatrix in="SourceAlpha" type="matrix" values="0 0 0 0 0 0 0 0 0 0 0 0 0 0 0 0 0 0 127 0" result="hardAlpha"/>
<feOffset dy="4"/>
<feGaussianBlur stdDeviation="2"/>
<feComposite in2="hardAlpha" operator="out"/>
<feColorMatrix type="matrix" values="0 0 0 0 0 0 0 0 0 0 0 0 0 0 0 0 0 0 0.25 0"/>
<feBlend mode="normal" in2="BackgroundImageFix" result="effect1_dropShadow_565_219"/>
<feBlend mode="normal" in="SourceGraphic" in2="effect1_dropShadow_565_219" result="shape"/>
</filter>
</defs>
</svg>
