<svg width="40" height="40" viewBox="0 0 40 40" fill="none" xmlns="http://www.w3.org/2000/svg">
<g filter="url(#filter0_d_565_218)">
<path d="M17.6847 27.368C20.721 27.3676 23.6699 26.3512 26.0615 24.4807L33.5812 32L36 29.5814L28.4802 22.062C30.3519 19.6703 31.369 16.7209 31.3694 13.684C31.3694 6.13898 25.2301 0 17.6847 0C10.1393 0 4 6.13898 4 13.684C4 21.229 10.1393 27.368 17.6847 27.368ZM17.6847 3.421C23.3451 3.421 27.9483 8.02395 27.9483 13.684C27.9483 19.344 23.3451 23.947 17.6847 23.947C12.0244 23.947 7.42118 19.344 7.42118 13.684C7.42118 8.02395 12.0244 3.421 17.6847 3.421Z" fill="#1B599D"/>
</g>
<defs>
<filter id="filter0_d_565_218" x="0" y="0" width="40" height="40" filterUnits="userSpaceOnUse" color-interpolation-filters="sRGB">
<feFlood flood-opacity="0" result="BackgroundImageFix"/>
<feColorMatrix in="SourceAlpha" type="matrix" values="0 0 0 0 0 0 0 0 0 0 0 0 0 0 0 0 0 0 127 0" result="hardAlpha"/>
<feOffset dy="4"/>
<feGaussianBlur stdDeviation="2"/>
<feComposite in2="hardAlpha" operator="out"/>
<feColorMatrix type="matrix" values="0 0 0 0 0 0 0 0 0 0 0 0 0 0 0 0 0 0 0.25 0"/>
<feBlend mode="normal" in2="BackgroundImageFix" result="effect1_dropShadow_565_218"/>
<feBlend mode="normal" in="SourceGraphic" in2="effect1_dropShadow_565_218" result="shape"/>
</filter>
</defs>
</svg>
