<svg width="40" height="40" viewBox="0 0 40 40" fill="none" xmlns="http://www.w3.org/2000/svg">
<path d="M16.6667 35C17.5871 35 18.3333 34.2538 18.3333 33.3333C18.3333 32.4128 17.5871 31.6666 16.6667 31.6666C15.7462 31.6666 15 32.4128 15 33.3333C15 34.2538 15.7462 35 16.6667 35Z" stroke="#1B599D" stroke-width="3" stroke-linecap="round" stroke-linejoin="round"/>
<path d="M30.0002 35C30.9206 35 31.6668 34.2538 31.6668 33.3333C31.6668 32.4128 30.9206 31.6666 30.0002 31.6666C29.0797 31.6666 28.3335 32.4128 28.3335 33.3333C28.3335 34.2538 29.0797 35 30.0002 35Z" stroke="#1B599D" stroke-width="3" stroke-linecap="round" stroke-linejoin="round"/>
<path d="M3.3335 5H9.16683C9.16683 5 9.85506 8.04738 10.296 10C11.1772 13.9016 12.3874 19.2603 13.0974 22.4042C13.4407 23.9238 14.7901 25 16.3482 25H30.6597C32.222 25 33.5747 23.9148 33.9135 22.3898L36.6668 10" stroke="#1B599D" stroke-width="3" stroke-linecap="round" stroke-linejoin="round"/>
<path d="M36.6668 10H10.8335" stroke="#1B599D" stroke-width="3" stroke-linecap="round" stroke-linejoin="round"/>
</svg>
