<svg width="50" height="50" viewBox="0 0 50 50" fill="none" xmlns="http://www.w3.org/2000/svg">
<path d="M0 24.3902C0 12.8926 0 7.14374 3.57187 3.57187C7.14374 0 12.8926 0 24.3902 0H25.6098C37.1074 0 42.8563 0 46.4281 3.57187C50 7.14374 50 12.8926 50 24.3902V25.6098C50 37.1074 50 42.8563 46.4281 46.4281C42.8563 50 37.1074 50 25.6098 50H24.3902C12.8926 50 7.14374 50 3.57187 46.4281C0 42.8563 0 37.1074 0 25.6098V24.3902Z" fill="#CAE2F7"/>
<path opacity="0.2" d="M29.9019 19.0776C30.3598 19.9116 30.6006 20.8473 30.6022 21.7987V22.1888C30.6038 22.5501 30.4815 22.9011 30.2558 23.1832C30.0301 23.4654 29.7146 23.6617 29.3617 23.7394C27.9302 24.0594 26.4668 24.2138 25 24.1996C23.5333 24.2138 22.0698 24.0594 20.6384 23.7394C20.2855 23.6617 19.97 23.4654 19.7443 23.1832C19.5185 22.9011 19.3963 22.5501 19.3979 22.1888V21.8787C19.3985 20.8967 19.6535 19.9317 20.1382 19.0776C16.3868 19.8479 13.7958 21.4986 13.7958 23.3993C13.7958 26.0503 18.8077 28.2011 25 28.2011C31.1924 28.2011 36.2043 26.0503 36.2043 23.3993C36.2043 21.4986 33.6333 19.8579 29.9019 19.0776Z" fill="#0A2D65"/>
<path d="M29.0817 31.0723L29.4718 33.4332" stroke="#0A2D65" stroke-width="1.44817" stroke-linecap="round" stroke-linejoin="round"/>
<path d="M25.0001 31.4023V34.6036" stroke="#0A2D65" stroke-width="1.44817" stroke-linecap="round" stroke-linejoin="round"/>
<path d="M20.9185 31.0723L20.5283 33.4332" stroke="#0A2D65" stroke-width="1.44817" stroke-linecap="round" stroke-linejoin="round"/>
<path d="M29.9019 19.0776C33.6333 19.8579 36.2043 21.4986 36.2043 23.3993C36.2043 26.0503 31.1924 28.2011 25 28.2011C18.8077 28.2011 13.7958 26.0503 13.7958 23.3993C13.7958 21.4986 16.3868 19.8479 20.1382 19.0776" stroke="#0A2D65" stroke-width="1.44817" stroke-linecap="round" stroke-linejoin="round"/>
<path d="M19.398 22.1888C19.3964 22.5501 19.5186 22.901 19.7443 23.1832C19.97 23.4653 20.2856 23.6616 20.6384 23.7394C22.0699 24.0593 23.5334 24.2137 25.0001 24.1995C26.4668 24.2137 27.9303 24.0593 29.3618 23.7394C29.7146 23.6616 30.0302 23.4653 30.2559 23.1832C30.4816 22.901 30.6038 22.5501 30.6022 22.1888V21.7986C30.6023 21.057 30.4551 20.3228 30.1692 19.6385C29.8833 18.9542 29.4644 18.3335 28.9367 17.8123C28.4091 17.2912 27.7832 16.88 27.0954 16.6027C26.4076 16.3253 25.6716 16.1872 24.9301 16.1965C21.8489 16.2365 19.398 18.8075 19.398 21.8786V22.1888Z" stroke="#0A2D65" stroke-width="1.44817" stroke-linecap="round" stroke-linejoin="round"/>
</svg>
